# xmcd CD database file
#
# Track frame offsets:
#	151
#	16924
#	30147
#	45576
#	62814
#	80012
#	95055
#	106970
#	119407
#	129994
#	142653
#	158488
#	176848
#	194376
#	208528
#	221900
#	237759
#	254745
#	267067
#	282055
#
# Disc length: 3955 seconds
#
# Revision: 0
# Processed by: cddbd v1.5.1PL0 Copyright (c) Steve Scherf et al.
# Submitted via: CDex 1.51
#
DISCID=150f7114
DTITLE=Crystal Gayle - The Crystal Gayle Collection
DYEAR=2005
DGENRE=Country
TTITLE0=When I Dream
TTITLE1=Talking In Your Sleep
TTITLE2=Ready For The Times To Get Better
TTITLE3=Nobody Wants To Be Alone
TTITLE4=Miss The Mississippi And You
TTITLE5=For The Good Times
TTITLE6=Always
TTITLE7=Don't It Make My Brown Eyes Blue
TTITLE8=Crying In The Rain
TTITLE9=Crazy
TTITLE10=Tennessee Nights
TTITLE11=Half The Way
TTITLE12=Ain't No Love In The Heart Of The City
TTITLE13=Nobody's Angle
TTITLE14=I Just Can't Leave Your Love Alone
TTITLE15=Deeper In The Fire
TTITLE16=A New Way To Say I Love You
TTITLE17=Lean On Me
TTITLE18=The Blue Side
TTITLE19=The Sound Of Goodbye
EXTD=YEAR: 2005
EXTT0=
EXTT1=
EXTT2=
EXTT3=
EXTT4=
EXTT5=
EXTT6=
EXTT7=
EXTT8=
EXTT9=
EXTT10=
EXTT11=
EXTT12=
EXTT13=
EXTT14=
EXTT15=
EXTT16=
EXTT17=
EXTT18=
EXTT19=
PLAYORDER=
